# xmcd
#
# Track frame offsets:
#	150
#	15885
#	33122
#	50343
#
# Disc length: 880 seconds
#
# Revision: 8
# Processed by: cddbd v1.5.2PL0 Copyright (c) Steve Scherf et al.
# Submitted via: audiograbber 1.83.01
#
DISCID=1d036e04
DTITLE=Monrose - Shame
DYEAR=2006
DGENRE=Pop
TTITLE0=Shame (Radio-edit)
TTITLE1=Work It
TTITLE2=Shame (Video-edit)
TTITLE3=Shame (Instrumental)
EXTD=
EXTT0=
EXTT1=
EXTT2=
EXTT3=
PLAYORDER=
